<svg width="8" height="8" viewBox="0 0 8 8" fill="none" xmlns="http://www.w3.org/2000/svg">
<path d="M2.67153 5.43784C2.29806 5.05946 2.11133 4.58018 2.11133 4C2.11133 3.41982 2.29806 2.94234 2.67153 2.56757C3.04889 2.18919 3.54491 2 4.15957 2C4.66531 2 5.09325 2.12973 5.44338 2.38919C5.7935 2.64865 6.0172 2.9964 6.11445 3.43243H5.66512C5.58343 3.10811 5.40642 2.85045 5.1341 2.65946C4.86177 2.46847 4.53693 2.37297 4.15957 2.37297C3.67718 2.37297 3.28815 2.52252 2.99248 2.82162C2.70071 3.12072 2.55482 3.51351 2.55482 4C2.55482 4.48649 2.70071 4.87928 2.99248 5.17838C3.28815 5.47748 3.67718 5.62703 4.15957 5.62703C4.53693 5.62703 4.86177 5.53153 5.1341 5.34054C5.40642 5.14955 5.58343 4.89189 5.66512 4.56757H6.11445C6.0172 5.0036 5.7935 5.35135 5.44338 5.61081C5.09325 5.87027 4.66531 6 4.15957 6C3.54491 6 3.04889 5.81261 2.67153 5.43784Z" fill="white"/>
<path d="M4.11367 7.25C5.90971 7.25 7.36602 5.79511 7.36602 4C7.36602 2.20489 5.90971 0.75 4.11367 0.75C2.31764 0.75 0.861328 2.20489 0.861328 4C0.861328 5.79511 2.31764 7.25 4.11367 7.25Z" stroke="white" stroke-width="0.5"/>
</svg>
