<svg width="29" height="28" viewBox="0 0 29 28" fill="none" xmlns="http://www.w3.org/2000/svg">
<path opacity="0.8" d="M14.6149 0C11.8569 0 9.16074 0.81786 6.8675 2.35016C4.57426 3.88245 2.78689 6.06036 1.73143 8.60848C0.675964 11.1566 0.399807 13.9605 0.937877 16.6655C1.47595 19.3706 2.80408 21.8554 4.75432 23.8056C6.70457 25.7558 9.18933 27.084 11.8944 27.622C14.5995 28.1601 17.4033 27.884 19.9514 26.8285C22.4996 25.773 24.6775 23.9857 26.2098 21.6924C27.7421 19.3992 28.5599 16.7031 28.5599 13.945C28.5599 10.2466 27.0907 6.69959 24.4755 4.08439C21.8603 1.4692 18.3134 0 14.6149 0ZM18.1489 12.6239L17.9177 14.567C17.9077 14.6572 17.8647 14.7405 17.7969 14.8008C17.7291 14.8611 17.6414 14.8942 17.5507 14.8936H15.5324V20.6551C15.5328 20.7239 15.5061 20.7901 15.458 20.8392C15.4099 20.8884 15.3443 20.9165 15.2755 20.9175H13.2204C13.1862 20.917 13.1524 20.9098 13.121 20.8963C13.0896 20.8827 13.0611 20.8631 13.0373 20.8386C13.0134 20.8141 12.9946 20.7851 12.982 20.7533C12.9693 20.7215 12.9631 20.6875 12.9635 20.6533L12.9746 14.8936H11.4461C11.3488 14.8936 11.2554 14.855 11.1866 14.7861C11.1178 14.7173 11.0791 14.624 11.0791 14.5266V12.5854C11.0791 12.488 11.1178 12.3947 11.1866 12.3259C11.2554 12.257 11.3488 12.2184 11.4461 12.2184H12.9635V10.3358C12.9635 8.15782 14.2608 6.9725 16.1562 6.9725H17.7103C17.8077 6.9725 17.901 7.01116 17.9698 7.07998C18.0387 7.1488 18.0773 7.24214 18.0773 7.33947V8.97434C18.0773 9.07167 18.0387 9.16501 17.9698 9.23383C17.901 9.30265 17.8077 9.34131 17.7103 9.34131H16.758C15.7269 9.35783 15.5324 9.85141 15.5324 10.589V12.2129H17.7929C17.8441 12.214 17.8945 12.2259 17.9408 12.2477C17.9872 12.2695 18.0284 12.3008 18.062 12.3395C18.0955 12.3782 18.1206 12.4235 18.1355 12.4725C18.1505 12.5215 18.155 12.573 18.1489 12.6239Z" fill="white"/>
</svg>
