<svg width="48" height="49" viewBox="0 0 48 49" fill="none" xmlns="http://www.w3.org/2000/svg">
<path d="M23.999 0.990234C10.7459 0.990234 0 11.7361 0 24.9892C0 38.2423 10.7459 48.9902 23.999 48.9902C37.2521 48.9902 48 38.2423 48 24.9892C48 11.7361 37.2521 0.990234 23.999 0.990234ZM28.995 38.1854C27.7597 38.673 26.7764 39.0428 26.0389 39.2988C25.3034 39.5548 24.448 39.6828 23.4748 39.6828C21.9794 39.6828 20.8152 39.3171 19.9863 38.5877C19.1573 37.8583 18.7449 36.9339 18.7449 35.8103C18.7449 35.3735 18.7754 34.9265 18.8363 34.4714C18.8993 34.0163 18.9989 33.5043 19.135 32.9293L20.6811 27.4679C20.8173 26.9438 20.9351 26.446 21.0286 25.9827C21.122 25.5154 21.1667 25.0867 21.1667 24.6966C21.1667 24.0018 21.0225 23.5142 20.736 23.2399C20.4455 22.9656 19.8989 22.8315 19.0842 22.8315C18.686 22.8315 18.2756 22.8904 17.855 23.0144C17.4385 23.1424 17.0768 23.2582 16.7802 23.372L17.1886 21.6897C18.2004 21.2772 19.1695 20.9237 20.094 20.6311C21.0184 20.3345 21.8921 20.1882 22.7149 20.1882C24.2001 20.1882 25.346 20.5499 26.1526 21.265C26.9552 21.9822 27.3595 22.9148 27.3595 24.0607C27.3595 24.2984 27.331 24.717 27.2762 25.3143C27.2213 25.9137 27.1177 26.4602 26.9674 26.962L25.4293 32.4071C25.3034 32.844 25.1916 33.3438 25.09 33.9025C24.9905 34.4612 24.9417 34.8879 24.9417 35.1744C24.9417 35.8977 25.1022 36.3914 25.4273 36.6535C25.7483 36.9156 26.3111 37.0476 27.1076 37.0476C27.4834 37.0476 27.904 36.9806 28.3794 36.8506C28.8508 36.7205 29.1921 36.6047 29.4075 36.5052L28.995 38.1854ZM28.7228 16.0841C28.0056 16.7505 27.1421 17.0837 26.1323 17.0837C25.1246 17.0837 24.255 16.7505 23.5317 16.0841C22.8124 15.4177 22.4488 14.607 22.4488 13.6602C22.4488 12.7154 22.8145 11.9027 23.5317 11.2302C24.255 10.5557 25.1246 10.2205 26.1323 10.2205C27.1421 10.2205 28.0076 10.5557 28.7228 11.2302C29.44 11.9027 29.7996 12.7154 29.7996 13.6602C29.7996 14.609 29.44 15.4177 28.7228 16.0841Z" fill="#E51C21"/>
</svg>
