<svg width="29" height="28" viewBox="0 0 29 28" fill="none" xmlns="http://www.w3.org/2000/svg">
<g opacity="0.8">
<path d="M17.3954 13.945C17.3954 15.4192 16.2004 16.6142 14.7263 16.6142C13.2521 16.6142 12.0571 15.4192 12.0571 13.945C12.0571 12.4708 13.2521 11.2758 14.7263 11.2758C16.2004 11.2758 17.3954 12.4708 17.3954 13.945Z" fill="white"/>
<path d="M20.9684 9.22246C20.8401 8.87477 20.6354 8.56007 20.3694 8.30175C20.1111 8.03577 19.7966 7.83107 19.4487 7.70276C19.1666 7.59318 18.7427 7.46274 17.962 7.42721C17.1175 7.38869 16.8642 7.38039 14.7262 7.38039C12.5879 7.38039 12.3347 7.38848 11.4904 7.42699C10.7097 7.46274 10.2856 7.59318 10.0037 7.70276C9.65576 7.83107 9.34105 8.03577 9.08295 8.30175C8.81697 8.56007 8.61227 8.87456 8.48375 9.22246C8.37417 9.50461 8.24373 9.92869 8.20819 10.7094C8.16968 11.5537 8.16138 11.8069 8.16138 13.9452C8.16138 16.0833 8.16968 16.3365 8.20819 17.181C8.24373 17.9617 8.37417 18.3856 8.48375 18.6677C8.61227 19.0156 8.81676 19.3301 9.08274 19.5884C9.34105 19.8544 9.65555 20.0591 10.0035 20.1874C10.2856 20.2972 10.7097 20.4277 11.4904 20.4632C12.3347 20.5017 12.5877 20.5098 14.726 20.5098C16.8645 20.5098 17.1177 20.5017 17.9618 20.4632C18.7425 20.4277 19.1666 20.2972 19.4487 20.1874C20.1471 19.918 20.699 19.3661 20.9684 18.6677C21.078 18.3856 21.2084 17.9617 21.2442 17.181C21.2827 16.3365 21.2908 16.0833 21.2908 13.9452C21.2908 11.8069 21.2827 11.5537 21.2442 10.7094C21.2086 9.92869 21.0782 9.50461 20.9684 9.22246ZM14.7262 18.0568C12.4551 18.0568 10.6141 16.216 10.6141 13.945C10.6141 11.6739 12.4551 9.83315 14.7262 9.83315C16.997 9.83315 18.838 11.6739 18.838 13.945C18.838 16.216 16.997 18.0568 14.7262 18.0568ZM19.0006 10.6315C18.4699 10.6315 18.0397 10.2013 18.0397 9.67059C18.0397 9.1399 18.4699 8.70965 19.0006 8.70965C19.5313 8.70965 19.9615 9.1399 19.9615 9.67059C19.9613 10.2013 19.5313 10.6315 19.0006 10.6315Z" fill="white"/>
<path d="M14.7262 0C7.02582 0 0.78125 6.24457 0.78125 13.945C0.78125 21.6454 7.02582 27.89 14.7262 27.89C22.4267 27.89 28.6712 21.6454 28.6712 13.945C28.6712 6.24457 22.4267 0 14.7262 0ZM22.6854 17.2463C22.6467 18.0988 22.5112 18.6807 22.3133 19.1901C21.8973 20.2657 21.047 21.116 19.9714 21.532C19.4622 21.7299 18.88 21.8652 18.0278 21.9042C17.1739 21.9431 16.9011 21.9525 14.7265 21.9525C12.5516 21.9525 12.279 21.9431 11.4249 21.9042C10.5727 21.8652 9.99053 21.7299 9.48134 21.532C8.94683 21.3309 8.46296 21.0158 8.06292 20.6083C7.65566 20.2085 7.34052 19.7244 7.13944 19.1901C6.94155 18.6809 6.80601 18.0988 6.76728 17.2466C6.72792 16.3924 6.71877 16.1196 6.71877 13.945C6.71877 11.7703 6.72792 11.4976 6.76707 10.6437C6.8058 9.79125 6.94113 9.20928 7.13902 8.69988C7.3401 8.16558 7.65544 7.6815 8.06292 7.28167C8.46275 6.87419 8.94683 6.55906 9.48113 6.35798C9.99053 6.16009 10.5725 6.02476 11.4249 5.98582C12.2788 5.94688 12.5516 5.93752 14.7262 5.93752C16.9009 5.93752 17.1737 5.94688 18.0276 5.98603C18.88 6.02476 19.462 6.16009 19.9714 6.35777C20.5057 6.55885 20.9898 6.87419 21.3898 7.28167C21.7971 7.68171 22.1124 8.16558 22.3133 8.69988C22.5114 9.20928 22.6467 9.79125 22.6856 10.6437C22.7246 11.4976 22.7337 11.7703 22.7337 13.945C22.7337 16.1196 22.7246 16.3924 22.6854 17.2463Z" fill="white"/>
</g>
</svg>
