<svg width="35" height="26" viewBox="0 0 35 26" fill="none" xmlns="http://www.w3.org/2000/svg">
<path d="M30.6834 0.0195312H3.56658C1.59653 0.0195312 0 1.61606 0 3.58611V16.709C0 18.679 1.59653 20.2755 3.56658 20.2755H10.1997C10.6021 20.2755 10.9925 20.4189 11.2986 20.6816L16.0472 24.7434C16.6677 25.2748 17.5823 25.2748 18.2028 24.7434L22.9514 20.6816C23.2575 20.4201 23.6467 20.2755 24.0503 20.2755H30.6834C32.6535 20.2755 34.25 18.679 34.25 16.709V3.58611C34.25 1.61606 32.6535 0.0195312 30.6834 0.0195312Z" fill="#E51C21"/>
<path d="M16.8152 15.1691L12.2714 11.7471C11.7701 11.37 11.3689 10.8651 11.1653 10.2711C10.3315 7.83473 12.7871 5.02484 15.5126 6.25145C15.5753 6.28037 15.638 6.31049 15.7006 6.34182L16.8152 6.91657L17.9297 6.34182C17.9924 6.30929 18.055 6.27917 18.1177 6.25145C20.8432 5.02484 23.2989 7.83473 22.4651 10.2711C22.2614 10.8639 21.8602 11.37 21.3589 11.7471L16.8152 15.1691Z" fill="white"/>
</svg>
