<svg width="29" height="28" viewBox="0 0 29 28" fill="none" xmlns="http://www.w3.org/2000/svg">
<path opacity="0.8" fill-rule="evenodd" clip-rule="evenodd" d="M14.8357 27.8901C7.13526 27.8901 0.890625 21.6454 0.890625 13.945C0.890625 6.24463 7.13526 0 14.8357 0C22.5361 0 28.7807 6.24463 28.7807 13.945C28.7807 21.6454 22.5361 27.8901 14.8357 27.8901ZM14.8357 4.87461C18.6505 4.87461 21.7428 7.96701 21.7428 11.7818C21.7428 15.5965 14.8357 23.0153 14.8357 23.0153C14.8357 23.0153 7.92848 15.5965 7.92848 11.7818C7.92848 7.96701 11.0209 4.87461 14.8357 4.87461ZM14.8357 9.03748C16.282 9.03748 17.4549 10.2104 17.4549 11.6568C17.4549 13.1032 16.282 14.2761 14.8357 14.2761C13.3893 14.2761 12.2164 13.1032 12.2164 11.6568C12.2164 10.2104 13.3893 9.03748 14.8357 9.03748Z" fill="white"/>
</svg>
