<svg width="20" height="20" viewBox="0 0 20 20" fill="none" xmlns="http://www.w3.org/2000/svg">
<path fill-rule="evenodd" clip-rule="evenodd" d="M9.66131 19.8099C4.46334 19.8099 0.248047 15.5946 0.248047 10.3967C0.248047 5.19869 4.46334 0.983398 9.66131 0.983398C14.8593 0.983398 19.0746 5.19869 19.0746 10.3967C19.0746 15.5946 14.8593 19.8099 9.66131 19.8099ZM9.66131 4.27389C12.2364 4.27389 14.3238 6.36134 14.3238 8.93642C14.3238 11.5114 9.66131 16.5194 9.66131 16.5194C9.66131 16.5194 4.99878 11.5114 4.99878 8.93642C4.99878 6.36134 7.08623 4.27389 9.66131 4.27389ZM9.66131 7.08394C10.6376 7.08394 11.4294 7.87569 11.4294 8.85207C11.4294 9.82838 10.6376 10.6201 9.66131 10.6201C8.685 10.6201 7.89325 9.82838 7.89325 8.85207C7.89325 7.87569 8.685 7.08394 9.66131 7.08394Z" fill="#E51C21"/>
</svg>
