<svg width="28" height="28" viewBox="0 0 28 28" fill="none" xmlns="http://www.w3.org/2000/svg">
<path opacity="0.8" d="M23.8042 4.08292C18.3575 -1.36213 9.52797 -1.36082 4.08292 4.08592C-1.36213 9.53265 -1.36082 18.3621 4.08592 23.8072C9.53265 29.2522 18.3622 29.2509 23.8072 23.8042C26.4222 21.1884 27.8909 17.6408 27.8901 13.9421C27.8893 10.2439 26.4196 6.69751 23.8042 4.08292ZM21.1193 19.4253L21.1174 19.4271V19.4225L20.4109 20.1244C19.4971 21.0497 18.1663 21.4304 16.9014 21.1284C15.627 20.7873 14.4155 20.2443 13.3128 19.5201C12.2884 18.8654 11.3391 18.1001 10.482 17.2378C9.6934 16.4549 8.98493 15.5954 8.36699 14.6719C7.69109 13.6782 7.15611 12.5957 6.77725 11.4552C6.34294 10.1154 6.70285 8.64524 7.70694 7.65753L8.53433 6.83015C8.76437 6.59907 9.13816 6.59826 9.36918 6.82829L11.9834 9.4425C12.2145 9.67254 12.2153 10.0463 11.9852 10.2773L10.4494 11.8132C10.0093 12.2485 9.95395 12.9403 10.3193 13.4401C10.8741 14.2015 11.4881 14.918 12.1554 15.583C12.8995 16.3303 13.7083 17.01 14.5725 17.6143C15.0719 17.9626 15.7489 17.9039 16.1808 17.4749L17.6636 15.9688C17.8937 15.7378 18.2675 15.7369 18.4985 15.967L21.1174 18.5905C21.3485 18.8205 21.3493 19.1942 21.1193 19.4253Z" fill="white"/>
</svg>
