<svg width="29" height="28" viewBox="0 0 29 28" fill="none" xmlns="http://www.w3.org/2000/svg">
<path opacity="0.8" d="M14.8356 0C7.13179 0 0.890625 6.24116 0.890625 13.945C0.890625 21.6488 7.13179 27.89 14.8356 27.89C22.5395 27.89 28.7806 21.6488 28.7806 13.945C28.7806 6.24116 22.5395 0 14.8356 0ZM21.052 10.7284C21.052 10.7284 21.5044 14.8561 18.2444 17.9488C13.6766 22.281 7.0884 18.9094 7.0884 18.9094C10.2555 18.9466 11.5942 17.6141 11.5942 17.6141C8.99112 17.1678 8.73081 15.3085 8.73081 15.3085C9.17705 15.5874 10.1501 15.3085 10.1501 15.3085C7.24954 13.976 7.70198 12.222 7.70198 12.222C8.54488 12.693 9.17705 12.5195 9.17705 12.5195C6.92106 10.561 8.1978 8.48476 8.1978 8.48476C12.1582 12.253 14.7055 11.4783 14.7055 11.4783C14.5257 8.82563 16.0938 7.7968 17.7858 7.74102C19.2113 7.69144 20.0294 8.68309 20.0294 8.68309C21.1264 8.77605 22.1552 8.04472 22.1552 8.04472C22.0622 8.931 20.8599 9.68093 20.8599 9.68093C21.4858 9.73671 22.5766 9.39583 22.5766 9.39583C22.0127 10.4309 21.052 10.7284 21.052 10.7284Z" fill="white"/>
</svg>
