<svg width="29" height="28" viewBox="0 0 29 28" fill="none" xmlns="http://www.w3.org/2000/svg">
<path d="M16.3125 22.6562C22.8194 22.6562 28.0938 17.7879 28.0938 11.7812C28.0938 5.77463 22.8194 0.90625 16.3125 0.90625C9.80562 0.90625 4.53125 5.77463 4.53125 11.7812C4.53125 11.7812 5.38131 17.2188 0.90625 17.2188C0.90625 21.75 9.0625 22.6562 16.3125 22.6562Z" fill="#BBDEFB"/>
<path d="M16.3125 23.5625C5.336 23.5625 0 21.4872 0 17.2188C0 16.7185 0.406 16.3125 0.90625 16.3125C1.80525 16.3125 2.46137 16.0551 2.91269 15.5295C3.97119 14.2916 3.6395 11.9444 3.63587 11.9208C3.625 5.28525 9.31625 0 16.3125 0C23.3069 0 29 5.28525 29 11.7812C29 18.2773 23.3069 23.5625 16.3125 23.5625ZM1.95025 18.0308C2.813 20.4686 7.73575 21.75 16.3125 21.75C22.3101 21.75 27.1875 17.2768 27.1875 11.7812C27.1875 6.28394 22.3101 1.8125 16.3125 1.8125C10.3149 1.8125 5.4375 6.28394 5.4375 11.7812C5.44838 11.7812 5.89969 14.8281 4.29019 16.7076C3.69025 17.4073 2.90725 17.8513 1.95025 18.0308Z" fill="#455A64"/>
<path d="M19.9375 27.1875C21.9395 27.1875 23.5625 25.5645 23.5625 23.5625C23.5625 21.5605 21.9395 19.9375 19.9375 19.9375C17.9355 19.9375 16.3125 21.5605 16.3125 23.5625C16.3125 25.5645 17.9355 27.1875 19.9375 27.1875Z" fill="#37474F"/>
<path d="M9.0625 27.1875C11.0645 27.1875 12.6875 25.5645 12.6875 23.5625C12.6875 21.5605 11.0645 19.9375 9.0625 19.9375C7.06047 19.9375 5.4375 21.5605 5.4375 23.5625C5.4375 25.5645 7.06047 27.1875 9.0625 27.1875Z" fill="#37474F"/>
<path d="M12.7239 9.96875C12.2237 9.96875 11.8086 9.56275 11.8086 9.0625C11.8086 8.56225 12.2055 8.15625 12.7058 8.15625H12.7239C13.2242 8.15625 13.6302 8.56225 13.6302 9.0625C13.6302 9.56275 13.2242 9.96875 12.7239 9.96875Z" fill="#455A64"/>
<path d="M19.9739 9.96875C19.4755 9.96875 19.0586 9.56275 19.0586 9.0625C19.0586 8.56225 19.4555 8.15625 19.9558 8.15625H19.9739C20.4742 8.15625 20.8802 8.56225 20.8802 9.0625C20.8802 9.56275 20.4742 9.96875 19.9739 9.96875Z" fill="#455A64"/>
<path d="M16.3127 18.1252C13.6991 18.1252 11.4715 16.3453 10.8969 13.7933C10.7882 13.3039 11.0945 12.82 11.5821 12.7094C12.0714 12.6043 12.5554 12.9052 12.6659 13.3946C13.052 15.1128 14.5527 16.3127 16.3127 16.3127C18.0744 16.3127 19.5734 15.1128 19.9594 13.3946C20.0718 12.907 20.5503 12.6007 21.0433 12.7094C21.5327 12.82 21.839 13.3039 21.7302 13.7933C21.1557 16.3435 18.9281 18.1252 16.3127 18.1252Z" fill="#455A64"/>
</svg>
