<svg width="28" height="28" viewBox="0 0 28 28" fill="none" xmlns="http://www.w3.org/2000/svg">
<g opacity="0.8">
<path d="M12.2771 11.2734L16.6276 13.945L12.2771 16.6184V11.2734Z" fill="white"/>
<path d="M13.945 0C11.1869 0 8.49082 0.81786 6.19758 2.35016C3.90433 3.88245 2.11697 6.06036 1.06151 8.60848C0.00604215 11.1566 -0.270115 13.9605 0.267955 16.6655C0.806026 19.3706 2.13416 21.8554 4.0844 23.8056C6.03464 25.7558 8.5194 27.084 11.2245 27.622C13.9295 28.1601 16.7334 27.884 19.2815 26.8285C21.8296 25.773 24.0075 23.9857 25.5398 21.6924C27.0721 19.3992 27.89 16.7031 27.89 13.945C27.89 10.2466 26.4208 6.69959 23.8056 4.08439C21.1904 1.4692 17.6434 0 13.945 0ZM20.5909 17.301C20.312 18.1579 19.3891 18.679 18.5395 18.7982C15.4851 19.123 12.4049 19.123 9.35049 18.7982C8.50095 18.679 7.57801 18.1579 7.29911 17.301C6.86426 15.0854 6.86426 12.8064 7.29911 10.5909C7.57801 9.7248 8.50095 9.21287 9.35783 9.09361C12.4122 8.76883 15.4925 8.76883 18.5469 9.09361C19.3964 9.21287 20.3193 9.73214 20.5982 10.5909C21.0307 12.8069 21.0282 15.0859 20.5909 17.301Z" fill="white"/>
</g>
</svg>
