<svg width="318" height="117" viewBox="0 0 318 117" fill="none" xmlns="http://www.w3.org/2000/svg">
<path d="M84.97 83.62C84.97 72.14 91.18 54.54 97.31 42.28C94.17 41.73 90.79 41.49 87.64 41.34C67.52 63.35 39.22 97.07 21.77 97.07C13.83 97.07 0 88.74 0 77.42C0 56.2 43.39 38.59 77.89 38.59C79.93 38.59 82.06 38.59 84.02 38.75C93.92 29.32 104.77 18.31 110.74 11.71C114.51 7.47 117.66 3.69 117.74 1.81C117.74 1.26 117.66 0.71 116.8 0.16C116.88 0.08 117.04 0 117.27 0C119.16 0 121.44 1.49 123.56 3.62C125.6 5.66 128.04 8.89 127.25 10.22C120.65 17.92 113.34 30.81 107.92 41.97C114.68 43.93 120.5 46.37 124.98 49.51C125.22 49.67 124.98 50.45 124.43 50.14C118.61 47.07 112.88 45.11 107.14 43.77C97.63 64.68 94.17 78.04 94.17 86.06C94.17 89.05 94.41 93.53 98.49 93.53C102.18 93.53 107.21 90.7 108.31 89.91C108.94 89.44 109.1 89.83 108.62 90.54C107.2 92.43 103.2 96.67 100.29 96.67C90.54 96.67 84.96 88.65 84.96 83.62H84.97ZM14 90.93C25.95 90.85 56.99 66.8 81.52 41.18C40.72 42.51 6.61 67.11 6.61 83.07C6.61 87.47 9.13 90.93 14 90.93ZM89.61 39.05C92.36 39.29 95.66 39.76 98.41 40.23C103.99 28.99 111.38 16.1 117.27 6.43C109.1 17.28 99.66 28.67 89.6 39.05H89.61Z" fill="#E52421"/>
<path d="M157.52 43.45C157.76 45.18 157.6 46.99 157.05 48.87C159.56 48.56 165.3 47.93 167.5 47.77C167.97 47.77 168.29 49.03 167.58 49.11C165.06 49.42 159.17 50.21 156.42 50.68C153.59 57.91 146.12 65.22 141.41 68.76C136.14 72.77 128.36 77.09 121.05 77.09C116.73 77.09 107.3 74.18 107.3 68.6C107.3 66.71 109.74 63.96 114.14 61.13C113.75 60.74 113.51 60.42 113.51 60.11C113.51 58.62 115.16 55.63 116.26 53.59C121.37 44.31 130.33 32.92 136.7 23.25C138.59 20.42 140.24 17.59 141.81 14.76C143.54 11.54 144.25 8.94 142.83 8.24C142.75 8.24 144.95 7.85 147.07 9.34C149.9 11.3 151.71 14.45 151.71 16.02C151.71 16.18 151.63 16.33 151.55 16.49L137.09 36.61C139.21 35.67 142.2 35.12 145.11 35.12C149.59 35.12 156.98 39.91 157.53 43.45H157.52ZM115.71 72.69C117.2 72.69 118.54 72.38 120.43 71.75C127.03 69.47 134.03 64.05 139.69 58.47C141.58 56.58 143.23 54.7 144.64 52.81C139.06 54.15 134.11 56.19 128.53 59.02C116.82 64.91 113.44 69.4 113.2 71.2C113.12 72.14 114.22 72.69 115.71 72.69ZM121.45 57.91C127.58 55 135.44 52.25 146.44 50.21C149.43 45.49 150.76 41.49 150.53 39.99C150.29 38.57 148.96 37.95 147.31 37.95C144.32 37.95 139.61 40.31 135.28 43.53C130.17 47.3 125.69 51.7 121.45 57.91Z" fill="#E52421"/>
<path d="M178.75 39.76C180.87 37.64 185.82 34.97 189.36 34.97C196.12 34.97 200.68 39.92 201.46 45.42C207.04 45.73 212.54 45.5 213.72 45.26C214.66 45.1 215.69 45.81 213.25 46.6C211.83 47.07 206.65 48.02 201.07 48.09C200.52 56.58 182.36 77.33 168.77 77.33C160.91 77.33 153.92 73.56 153.92 66.88C153.92 57.37 168.54 42.67 178.76 39.76H178.75ZM163.42 73.79C170.34 73.79 187.08 59.01 192.82 47.93C189.2 47.69 185.98 46.67 183.94 45.73C172.07 49.66 161.46 65.69 161.46 71.2C161.46 72.69 161.54 73.79 163.42 73.79ZM191.32 37.56C188.88 38.03 187.31 39.68 187 41.25C186.69 43.21 189.67 44.31 194.23 44.94C194.78 43.53 194.94 42.66 194.94 41.4C194.94 38.57 193.84 37.08 191.32 37.55V37.56Z" fill="#E52421"/>
<path d="M246.1 47.7C239.1 56.27 230.22 69.55 230.14 71.2C230.14 71.44 230.22 71.59 230.53 71.59C232.18 71.59 245.15 60.82 255.6 50.68C256.15 50.13 257.09 50.68 256.7 51.23C254.97 53.51 251.2 57.83 246.01 63.26C240.82 68.68 231.47 77.41 229.11 77.41C226.12 77.41 220.78 72.22 220.78 69.24C220.78 66.72 226.75 58.86 230.68 53.44C221.56 63.26 210.17 74.9 205.61 77.25C205.37 77.33 205.3 77.33 205.22 77.33C202.08 77.33 195.87 71.83 195.87 68.06C195.87 65.15 205.22 53.13 213.55 42.2C214.81 40.55 216.14 38.43 216.46 37.17C216.7 36.07 215.99 35.6 215.2 35.44C215.36 35.36 217.09 34.89 219.05 36.54C223.37 40.16 224 42.83 223.92 43.93C223.92 44.09 223.84 44.24 223.76 44.4C223.76 44.4 218.18 50.69 215.19 54.38C209.06 62 204.66 69 204.66 70.57C204.66 70.88 204.82 71.36 205.29 71.36C207.96 71.36 233.27 49.43 238.77 42.51C240.03 40.94 241.68 38.58 241.52 36.54C241.52 35.91 241.28 35.52 240.81 35.28C240.73 35.28 242.62 35.04 244.66 36.54C248.28 39.21 249.61 42.28 249.53 43.38C249.53 43.54 249.45 43.69 249.37 43.85C249.37 43.85 247.88 45.42 246.07 47.7H246.1Z" fill="#E52421"/>
<path d="M253.02 71.2C253.02 71.44 253.1 71.59 253.41 71.59C255.06 71.59 268.34 60.82 278.8 50.68C279.35 50.13 279.98 50.68 279.59 51.23C277.86 53.51 274.09 57.83 268.9 63.26C263.71 68.68 254.36 77.41 252 77.41C250.9 77.41 248.78 76.31 247.52 75.37C245.4 73.72 243.75 71.91 243.83 70.42C243.83 70.03 243.99 69.56 244.14 69.16C245.71 64.99 252.55 54.62 259.31 45.27L272.04 27.51C267.09 28.69 264.02 30.26 263.24 31.05C262.3 32.07 264.58 33.56 265.91 34.27C266.22 34.43 265.99 34.66 265.75 34.66C262.06 34.35 259.38 32.38 259.15 31.59C257.89 27.97 262.06 24.2 263.32 23.73C265.91 22.63 270.39 21.76 276.37 21.21C278.02 18.7 279.36 16.49 280.3 14.84C282.03 11.62 282.74 9.02 281.32 8.32C281.24 8.32 283.21 8.01 285.17 9.42C288.39 11.7 290.04 14.84 290.04 16.49C290.04 16.65 289.96 16.8 289.88 16.96L287.21 20.65C297.27 20.65 314.09 23.01 317.78 24.82C318.02 24.9 317.78 25.06 317.7 25.06C312.67 24.67 303.79 24.67 294.99 24.98C293.26 25.06 288.62 25.22 283.59 25.69L269.6 45.26C269.13 45.89 253.02 67.9 253.02 71.2Z" fill="#E52421"/>
<path d="M250.98 113.16C248.63 115.32 245.68 116.4 242.15 116.4C238.62 116.4 235.68 115.32 233.32 113.16C230.97 111 229.79 107.88 229.79 103.8V86.6399H235.78V103.97C235.78 106.1 236.31 107.79 237.36 109.02C238.41 110.25 240.01 110.87 242.14 110.87C244.27 110.87 245.87 110.25 246.92 109.02C247.97 107.79 248.5 106.1 248.5 103.97V86.6399H254.49V103.8C254.49 107.88 253.31 111 250.96 113.16H250.98Z" fill="#1D1D1B"/>
<path d="M267.81 116.28C261.95 116.28 258.85 113.79 258.49 108.81H264.4C264.45 109.6 264.78 110.27 265.36 110.8C265.95 111.33 266.82 111.6 267.97 111.6C269.12 111.6 269.9 111.42 270.47 111.07C271.04 110.71 271.33 110.24 271.33 109.63C271.33 108.97 270.92 108.49 270.1 108.17C269.28 107.85 268.29 107.6 267.12 107.41C265.95 107.22 264.79 106.96 263.61 106.63C262.43 106.3 261.43 105.66 260.61 104.7C259.79 103.74 259.38 102.47 259.38 100.88C259.38 98.8799 260.17 97.1999 261.76 95.8299C263.35 94.4599 265.43 93.7799 268 93.7799C270.93 93.7799 273.1 94.5199 274.53 95.9999C275.95 97.4799 276.72 99.1599 276.83 101.05H271.21C271.16 100.31 270.85 99.6999 270.29 99.1999C269.73 98.7099 268.96 98.4599 267.97 98.4599C267.04 98.4599 266.31 98.6599 265.79 99.0499C265.27 99.4499 265.01 99.9499 265.01 100.55C265.01 101.21 265.42 101.69 266.24 101.99C267.06 102.29 268.05 102.53 269.22 102.71C270.39 102.89 271.55 103.14 272.71 103.47C273.87 103.8 274.87 104.46 275.69 105.44C276.51 106.43 276.92 107.74 276.92 109.38C276.92 111.38 276.11 113.03 274.48 114.33C272.85 115.63 270.63 116.28 267.81 116.28Z" fill="#1D1D1B"/>
</svg>
